# This file uses centimeters as units for non-parametric coordinates.

mtllib Theo's_better_cilinder.mtl
g default
v 0.000000 0.307032 -2.209134
v -0.682660 0.307032 -2.101011
v -1.298496 0.307032 -1.787226
v -1.787226 0.307032 -1.298496
v -2.101011 0.307032 -0.682660
v -2.209133 0.307032 0.000000
v -2.101011 0.307032 0.682660
v -1.787226 0.307032 1.298496
v -1.298496 0.307032 1.787226
v -0.682660 0.307032 2.101010
v -0.000000 0.307032 2.209133
v 0.000000 11.736518 -2.209134
v -0.682660 11.736518 -2.101011
v -1.298496 11.736518 -1.787226
v -1.787226 11.736518 -1.298496
v -2.101011 11.736518 -0.682660
v -2.209133 11.736518 0.000000
v -2.101011 11.736518 0.682660
v -1.787226 11.736518 1.298496
v -1.298496 11.736518 1.787226
v -0.682660 11.736518 2.101010
v -0.000000 11.736518 2.209133
vt 0.425000 0.312500
vt 0.437500 0.312500
vt 0.450000 0.312500
vt 0.462500 0.312500
vt 0.475000 0.312500
vt 0.487500 0.312500
vt 0.500000 0.312500
vt 0.512500 0.312500
vt 0.525000 0.312500
vt 0.537500 0.312500
vt 0.550000 0.312500
vt 0.425000 0.687500
vt 0.437500 0.687500
vt 0.450000 0.687500
vt 0.462500 0.687500
vt 0.475000 0.687500
vt 0.487500 0.687500
vt 0.500000 0.687500
vt 0.512500 0.687500
vt 0.525000 0.687500
vt 0.537500 0.687500
vt 0.550000 0.687500
vn 0.156435 0.000000 0.987688
vn 0.156435 0.000000 0.987688
vn 0.309017 0.000000 0.951056
vn 0.309017 0.000000 0.951056
vn 0.587785 0.000000 0.809017
vn 0.587785 0.000000 0.809017
vn 0.809017 0.000000 0.587785
vn 0.809017 0.000000 0.587785
vn 0.951057 0.000000 0.309017
vn 0.951057 0.000000 0.309017
vn 1.000000 0.000000 0.000000
vn 1.000000 0.000000 0.000000
vn 0.951056 0.000000 -0.309017
vn 0.951056 0.000000 -0.309017
vn 0.809017 0.000000 -0.587785
vn 0.809017 0.000000 -0.587785
vn 0.587785 0.000000 -0.809017
vn 0.587785 0.000000 -0.809017
vn 0.309017 0.000000 -0.951057
vn 0.309017 0.000000 -0.951057
vn 0.156434 0.000000 -0.987688
vn 0.156434 0.000000 -0.987688
s 1
g pCylinder1
usemtl initialShadingGroup
f 1/1/1 12/12/2 13/13/3 2/2/4
f 2/2/4 13/13/3 14/14/5 3/3/6
f 3/3/6 14/14/5 15/15/7 4/4/8
f 4/4/8 15/15/7 16/16/9 5/5/10
f 5/5/10 16/16/9 17/17/11 6/6/12
f 6/6/12 17/17/11 18/18/13 7/7/14
f 7/7/14 18/18/13 19/19/15 8/8/16
f 8/8/16 19/19/15 20/20/17 9/9/18
f 9/9/18 20/20/17 21/21/19 10/10/20
f 10/10/20 21/21/19 22/22/21 11/11/22
